<?xml version="1.0" encoding="UTF-8" standalone="no"?><svg xmlns="http://www.w3.org/2000/svg" xmlns:xlink="http://www.w3.org/1999/xlink" contentScriptType="application/ecmascript" contentStyleType="text/css" height="1457px" preserveAspectRatio="none" style="width:1412px;height:1457px;" version="1.1" viewBox="0 0 1412 1457" width="1412px" zoomAndPan="magnify"><defs><filter height="300%" id="f1nj4y3ovnw8uw" width="300%" x="-1" y="-1"><feGaussianBlur result="blurOut" stdDeviation="2.0"/><feColorMatrix in="blurOut" result="blurOut2" type="matrix" values="0 0 0 0 0 0 0 0 0 0 0 0 0 0 0 0 0 0 .4 0"/><feOffset dx="4.0" dy="4.0" in="blurOut2" result="blurOut3"/><feBlend in="SourceGraphic" in2="blurOut3" mode="normal"/></filter></defs><g><polygon fill="#FFFFFF" filter="url(#f1nj4y3ovnw8uw)" points="14,124,97,124,104,146.2969,204,146.2969,204,450,14,450,14,124" style="stroke: #000000; stroke-width: 1.5;"/><line style="stroke: #000000; stroke-width: 1.5;" x1="14" x2="104" y1="146.2969" y2="146.2969"/><text fill="#000000" font-family="sans-serif" font-size="14" font-weight="bold" lengthAdjust="spacingAndGlyphs" textLength="77" x="18" y="138.9951">discovery</text><polygon fill="#FFFFFF" filter="url(#f1nj4y3ovnw8uw)" points="223,194.5,278,194.5,285,216.7969,455,216.7969,455,379.5,223,379.5,223,194.5" style="stroke: #000000; stroke-width: 1.5;"/><line style="stroke: #000000; stroke-width: 1.5;" x1="223" x2="285" y1="216.7969" y2="216.7969"/><text fill="#000000" font-family="sans-serif" font-size="14" font-weight="bold" lengthAdjust="spacingAndGlyphs" textLength="49" x="227" y="209.4951">config</text><polygon fill="#FFFFFF" filter="url(#f1nj4y3ovnw8uw)" points="543,647,596,647,603,669.2969,1390,669.2969,1390,1445,543,1445,543,647" style="stroke: #000000; stroke-width: 1.5;"/><line style="stroke: #000000; stroke-width: 1.5;" x1="543" x2="603" y1="669.2969" y2="669.2969"/><text fill="#000000" font-family="sans-serif" font-size="14" font-weight="bold" lengthAdjust="spacingAndGlyphs" textLength="47" x="547" y="661.9951">Model</text><polygon fill="#FFFFFF" filter="url(#f1nj4y3ovnw8uw)" points="603,207,671,207,678,229.2969,1206,229.2969,1206,622,603,622,603,207" style="stroke: #000000; stroke-width: 1.5;"/><line style="stroke: #000000; stroke-width: 1.5;" x1="603" x2="678" y1="229.2969" y2="229.2969"/><text fill="#000000" font-family="sans-serif" font-size="14" font-weight="bold" lengthAdjust="spacingAndGlyphs" textLength="62" x="607" y="221.9951">registry</text><polygon fill="#FFFFFF" filter="url(#f1nj4y3ovnw8uw)" points="52,16,90,16,97,38.2969,166,38.2969,166,99,52,99,52,16" style="stroke: #000000; stroke-width: 1.5;"/><line style="stroke: #000000; stroke-width: 1.5;" x1="52" x2="97" y1="38.2969" y2="38.2969"/><text fill="#000000" font-family="sans-serif" font-size="14" font-weight="bold" lengthAdjust="spacingAndGlyphs" textLength="32" x="56" y="30.9951">http</text><rect fill="#FEFECE" filter="url(#f1nj4y3ovnw8uw)" height="291.2891" id="Discovery" style="stroke: #A80036; stroke-width: 1.5;" width="174" x="22" y="151"/><ellipse cx="75.25" cy="167" fill="#ADD1B2" rx="11" ry="11" style="stroke: #A80036; stroke-width: 1.0;"/><path d="M78.2188,172.6406 Q77.6406,172.9375 77,173.0859 Q76.3594,173.2344 75.6563,173.2344 Q73.1563,173.2344 71.8359,171.5859 Q70.5156,169.9375 70.5156,166.8125 Q70.5156,163.6875 71.8359,162.0313 Q73.1563,160.375 75.6563,160.375 Q76.3594,160.375 77.0078,160.5313 Q77.6563,160.6875 78.2188,160.9844 L78.2188,163.7031 Q77.5938,163.125 77,162.8516 Q76.4063,162.5781 75.7813,162.5781 Q74.4375,162.5781 73.75,163.6484 Q73.0625,164.7188 73.0625,166.8125 Q73.0625,168.9063 73.75,169.9766 Q74.4375,171.0469 75.7813,171.0469 Q76.4063,171.0469 77,170.7734 Q77.5938,170.5 78.2188,169.9219 L78.2188,172.6406 Z "/><text fill="#000000" font-family="sans-serif" font-size="12" lengthAdjust="spacingAndGlyphs" textLength="59" x="95.75" y="171.1543">Discovery</text><line style="stroke: #A80036; stroke-width: 1.5;" x1="23" x2="195" y1="183" y2="183"/><rect fill="none" height="6" style="stroke: #C82930; stroke-width: 1.0;" width="6" x="30" y="191"/><text fill="#000000" font-family="sans-serif" font-size="11" lengthAdjust="spacingAndGlyphs" textLength="74" x="42" y="197.2104">config Config</text><rect fill="none" height="6" style="stroke: #C82930; stroke-width: 1.0;" width="6" x="30" y="203.8047"/><text fill="#000000" font-family="sans-serif" font-size="11" lengthAdjust="spacingAndGlyphs" textLength="103" x="42" y="210.0151">protected boolean</text><rect fill="none" height="6" style="stroke: #C82930; stroke-width: 1.0;" width="6" x="30" y="216.6094"/><text fill="#000000" font-family="sans-serif" font-size="11" lengthAdjust="spacingAndGlyphs" textLength="98" x="42" y="222.8198">client *http.Client</text><rect fill="none" height="6" style="stroke: #C82930; stroke-width: 1.0;" width="6" x="30" y="229.4141"/><text fill="#000000" font-family="sans-serif" font-size="11" lengthAdjust="spacingAndGlyphs" textLength="148" x="42" y="235.6245">registry *registry.Registry</text><rect fill="none" height="6" style="stroke: #C82930; stroke-width: 1.0;" width="6" x="30" y="242.2188"/><text fill="#000000" font-family="sans-serif" font-size="11" lengthAdjust="spacingAndGlyphs" textLength="112" x="42" y="248.4292">nodes atomic.Value</text><line style="stroke: #A80036; stroke-width: 1.5;" x1="23" x2="195" y1="255.0234" y2="255.0234"/><ellipse cx="33" cy="266.0234" fill="#84BE84" rx="3" ry="3" style="stroke: #038048; stroke-width: 1.0;"/><text fill="#000000" font-family="sans-serif" font-size="11" lengthAdjust="spacingAndGlyphs" textLength="55" x="42" y="269.2339">Register()</text><ellipse cx="33" cy="278.8281" fill="#84BE84" rx="3" ry="3" style="stroke: #038048; stroke-width: 1.0;"/><text fill="#000000" font-family="sans-serif" font-size="11" lengthAdjust="spacingAndGlyphs" textLength="45" x="42" y="282.0386">Renew()</text><ellipse cx="33" cy="291.6328" fill="#84BE84" rx="3" ry="3" style="stroke: #038048; stroke-width: 1.0;"/><text fill="#000000" font-family="sans-serif" font-size="11" lengthAdjust="spacingAndGlyphs" textLength="46" x="42" y="294.8433">Cancel()</text><ellipse cx="33" cy="304.4375" fill="#84BE84" rx="3" ry="3" style="stroke: #038048; stroke-width: 1.0;"/><text fill="#000000" font-family="sans-serif" font-size="11" lengthAdjust="spacingAndGlyphs" textLength="51" x="42" y="307.6479">FetchAll()</text><ellipse cx="33" cy="317.2422" fill="#84BE84" rx="3" ry="3" style="stroke: #038048; stroke-width: 1.0;"/><text fill="#000000" font-family="sans-serif" font-size="11" lengthAdjust="spacingAndGlyphs" textLength="38" x="42" y="320.4526">Fetch()</text><ellipse cx="33" cy="330.0469" fill="#84BE84" rx="3" ry="3" style="stroke: #038048; stroke-width: 1.0;"/><text fill="#000000" font-family="sans-serif" font-size="11" lengthAdjust="spacingAndGlyphs" textLength="45" x="42" y="333.2573">Fetchs()</text><ellipse cx="33" cy="342.8516" fill="#84BE84" rx="3" ry="3" style="stroke: #038048; stroke-width: 1.0;"/><text fill="#000000" font-family="sans-serif" font-size="11" lengthAdjust="spacingAndGlyphs" textLength="35" x="42" y="346.062">Polls()</text><ellipse cx="33" cy="355.6563" fill="#84BE84" rx="3" ry="3" style="stroke: #038048; stroke-width: 1.0;"/><text fill="#000000" font-family="sans-serif" font-size="11" lengthAdjust="spacingAndGlyphs" textLength="62" x="42" y="358.8667">DelConns()</text><ellipse cx="33" cy="368.4609" fill="#84BE84" rx="3" ry="3" style="stroke: #038048; stroke-width: 1.0;"/><text fill="#000000" font-family="sans-serif" font-size="11" lengthAdjust="spacingAndGlyphs" textLength="44" x="42" y="371.6714">Nodes()</text><ellipse cx="33" cy="381.2656" fill="#84BE84" rx="3" ry="3" style="stroke: #038048; stroke-width: 1.0;"/><text fill="#000000" font-family="sans-serif" font-size="11" lengthAdjust="spacingAndGlyphs" textLength="27" x="42" y="384.4761">Set()</text><text fill="#000000" font-family="sans-serif" font-size="11" lengthAdjust="spacingAndGlyphs" textLength="0" x="46" y="397.2808"/><rect fill="#F24D5C" height="6" style="stroke: #C82930; stroke-width: 1.0;" width="6" x="30" y="403.875"/><text fill="#000000" font-family="sans-serif" font-size="11" lengthAdjust="spacingAndGlyphs" textLength="49" x="42" y="410.0854">syncUp()</text><rect fill="#F24D5C" height="6" style="stroke: #C82930; stroke-width: 1.0;" width="6" x="30" y="416.6797"/><text fill="#000000" font-family="sans-serif" font-size="11" lengthAdjust="spacingAndGlyphs" textLength="49" x="42" y="422.8901">regSelf()</text><rect fill="#F24D5C" height="6" style="stroke: #C82930; stroke-width: 1.0;" width="6" x="30" y="429.4844"/><text fill="#000000" font-family="sans-serif" font-size="11" lengthAdjust="spacingAndGlyphs" textLength="68" x="42" y="435.6948">nodesproc()</text><rect fill="#FEFECE" filter="url(#f1nj4y3ovnw8uw)" height="150.4375" id="Config" style="stroke: #A80036; stroke-width: 1.5;" width="215" x="231.5" y="221.5"/><ellipse cx="315.25" cy="237.5" fill="#ADD1B2" rx="11" ry="11" style="stroke: #A80036; stroke-width: 1.0;"/><path d="M318.2188,243.1406 Q317.6406,243.4375 317,243.5859 Q316.3594,243.7344 315.6563,243.7344 Q313.1563,243.7344 311.8359,242.0859 Q310.5156,240.4375 310.5156,237.3125 Q310.5156,234.1875 311.8359,232.5313 Q313.1563,230.875 315.6563,230.875 Q316.3594,230.875 317.0078,231.0313 Q317.6563,231.1875 318.2188,231.4844 L318.2188,234.2031 Q317.5938,233.625 317,233.3516 Q316.4063,233.0781 315.7813,233.0781 Q314.4375,233.0781 313.75,234.1484 Q313.0625,235.2188 313.0625,237.3125 Q313.0625,239.4063 313.75,240.4766 Q314.4375,241.5469 315.7813,241.5469 Q316.4063,241.5469 317,241.2734 Q317.5938,241 318.2188,240.4219 L318.2188,243.1406 Z "/><text fill="#000000" font-family="sans-serif" font-size="12" lengthAdjust="spacingAndGlyphs" textLength="39" x="335.75" y="241.6543">Config</text><line style="stroke: #A80036; stroke-width: 1.5;" x1="232.5" x2="445.5" y1="253.5" y2="253.5"/><ellipse cx="242.5" cy="264.5" fill="none" rx="3" ry="3" style="stroke: #038048; stroke-width: 1.0;"/><text fill="#000000" font-family="sans-serif" font-size="11" lengthAdjust="spacingAndGlyphs" textLength="113" x="251.5" y="267.7104">Nodes         []string</text><ellipse cx="242.5" cy="277.3047" fill="none" rx="3" ry="3" style="stroke: #038048; stroke-width: 1.0;"/><text fill="#000000" font-family="sans-serif" font-size="11" lengthAdjust="spacingAndGlyphs" textLength="180" x="251.5" y="280.5151">Zones         map[string][]string</text><ellipse cx="242.5" cy="290.1094" fill="none" rx="3" ry="3" style="stroke: #038048; stroke-width: 1.0;"/><text fill="#000000" font-family="sans-serif" font-size="11" lengthAdjust="spacingAndGlyphs" textLength="189" x="251.5" y="293.3198">HTTPServer    *http.ServerConfig</text><ellipse cx="242.5" cy="302.9141" fill="none" rx="3" ry="3" style="stroke: #038048; stroke-width: 1.0;"/><text fill="#000000" font-family="sans-serif" font-size="11" lengthAdjust="spacingAndGlyphs" textLength="177" x="251.5" y="306.1245">HTTPClient    *http.ClientConfig</text><ellipse cx="242.5" cy="315.7188" fill="none" rx="3" ry="3" style="stroke: #038048; stroke-width: 1.0;"/><text fill="#000000" font-family="sans-serif" font-size="11" lengthAdjust="spacingAndGlyphs" textLength="90" x="251.5" y="318.9292">Env           *Env</text><ellipse cx="242.5" cy="328.5234" fill="none" rx="3" ry="3" style="stroke: #038048; stroke-width: 1.0;"/><text fill="#000000" font-family="sans-serif" font-size="11" lengthAdjust="spacingAndGlyphs" textLength="127" x="251.5" y="331.7339">Log           *log.Config</text><ellipse cx="242.5" cy="341.3281" fill="none" rx="3" ry="3" style="stroke: #038048; stroke-width: 1.0;"/><text fill="#000000" font-family="sans-serif" font-size="11" lengthAdjust="spacingAndGlyphs" textLength="109" x="251.5" y="344.5386">Scheduler     []byte</text><ellipse cx="242.5" cy="354.1328" fill="none" rx="3" ry="3" style="stroke: #038048; stroke-width: 1.0;"/><text fill="#000000" font-family="sans-serif" font-size="11" lengthAdjust="spacingAndGlyphs" textLength="106" x="251.5" y="357.3433">EnableProtect bool</text><line style="stroke: #A80036; stroke-width: 1.5;" x1="232.5" x2="445.5" y1="363.9375" y2="363.9375"/><rect fill="#FEFECE" filter="url(#f1nj4y3ovnw8uw)" height="291.2891" id="Instance" style="stroke: #A80036; stroke-width: 1.5;" width="475" x="828.5" y="1146"/><ellipse cx="1034.75" cy="1162" fill="#ADD1B2" rx="11" ry="11" style="stroke: #A80036; stroke-width: 1.0;"/><path d="M1037.7188,1167.6406 Q1037.1406,1167.9375 1036.5,1168.0859 Q1035.8594,1168.2344 1035.1563,1168.2344 Q1032.6563,1168.2344 1031.3359,1166.5859 Q1030.0156,1164.9375 1030.0156,1161.8125 Q1030.0156,1158.6875 1031.3359,1157.0313 Q1032.6563,1155.375 1035.1563,1155.375 Q1035.8594,1155.375 1036.5078,1155.5313 Q1037.1563,1155.6875 1037.7188,1155.9844 L1037.7188,1158.7031 Q1037.0938,1158.125 1036.5,1157.8516 Q1035.9063,1157.5781 1035.2813,1157.5781 Q1033.9375,1157.5781 1033.25,1158.6484 Q1032.5625,1159.7188 1032.5625,1161.8125 Q1032.5625,1163.9063 1033.25,1164.9766 Q1033.9375,1166.0469 1035.2813,1166.0469 Q1035.9063,1166.0469 1036.5,1165.7734 Q1037.0938,1165.5 1037.7188,1164.9219 L1037.7188,1167.6406 Z "/><text fill="#000000" font-family="sans-serif" font-size="12" lengthAdjust="spacingAndGlyphs" textLength="54" x="1055.25" y="1166.1543">Instance</text><line style="stroke: #A80036; stroke-width: 1.5;" x1="829.5" x2="1302.5" y1="1178" y2="1178"/><ellipse cx="839.5" cy="1189" fill="none" rx="3" ry="3" style="stroke: #038048; stroke-width: 1.0;"/><text fill="#000000" font-family="sans-serif" font-size="11" lengthAdjust="spacingAndGlyphs" textLength="83" x="848.5" y="1192.2104">Region   string</text><ellipse cx="839.5" cy="1201.8047" fill="none" rx="3" ry="3" style="stroke: #038048; stroke-width: 1.0;"/><text fill="#000000" font-family="sans-serif" font-size="11" lengthAdjust="spacingAndGlyphs" textLength="83" x="848.5" y="1205.0151">Zone     string</text><ellipse cx="839.5" cy="1214.6094" fill="none" rx="3" ry="3" style="stroke: #038048; stroke-width: 1.0;"/><text fill="#000000" font-family="sans-serif" font-size="11" lengthAdjust="spacingAndGlyphs" textLength="77" x="848.5" y="1217.8198">Env      string</text><ellipse cx="839.5" cy="1227.4141" fill="none" rx="3" ry="3" style="stroke: #038048; stroke-width: 1.0;"/><text fill="#000000" font-family="sans-serif" font-size="11" lengthAdjust="spacingAndGlyphs" textLength="81" x="848.5" y="1230.6245">AppID    string</text><ellipse cx="839.5" cy="1240.2188" fill="none" rx="3" ry="3" style="stroke: #038048; stroke-width: 1.0;"/><text fill="#000000" font-family="sans-serif" font-size="11" lengthAdjust="spacingAndGlyphs" textLength="95" x="848.5" y="1243.4292">Hostname string</text><ellipse cx="839.5" cy="1253.0234" fill="none" rx="3" ry="3" style="stroke: #038048; stroke-width: 1.0;"/><text fill="#000000" font-family="sans-serif" font-size="11" lengthAdjust="spacingAndGlyphs" textLength="90" x="848.5" y="1256.2339">Addrs    []string</text><ellipse cx="839.5" cy="1265.8281" fill="none" rx="3" ry="3" style="stroke: #038048; stroke-width: 1.0;"/><text fill="#000000" font-family="sans-serif" font-size="11" lengthAdjust="spacingAndGlyphs" textLength="84" x="848.5" y="1269.0386">Version  string</text><ellipse cx="839.5" cy="1278.6328" fill="none" rx="3" ry="3" style="stroke: #038048; stroke-width: 1.0;"/><text fill="#000000" font-family="sans-serif" font-size="11" lengthAdjust="spacingAndGlyphs" textLength="155" x="848.5" y="1281.8433">Metadata map[string]string</text><text fill="#000000" font-family="sans-serif" font-size="11" lengthAdjust="spacingAndGlyphs" textLength="0" x="852.5" y="1294.6479"/><text fill="#000000" font-family="sans-serif" font-size="11" lengthAdjust="spacingAndGlyphs" textLength="177" x="848.5" y="1307.4526">// Status enum instance status</text><ellipse cx="839.5" cy="1317.0469" fill="none" rx="3" ry="3" style="stroke: #038048; stroke-width: 1.0;"/><text fill="#000000" font-family="sans-serif" font-size="11" lengthAdjust="spacingAndGlyphs" textLength="76" x="848.5" y="1320.2573">Status uint32</text><text fill="#000000" font-family="sans-serif" font-size="11" lengthAdjust="spacingAndGlyphs" textLength="0" x="852.5" y="1333.062"/><text fill="#000000" font-family="sans-serif" font-size="11" lengthAdjust="spacingAndGlyphs" textLength="73" x="848.5" y="1345.8667">// timestamp</text><ellipse cx="839.5" cy="1355.4609" fill="none" rx="3" ry="3" style="stroke: #038048; stroke-width: 1.0;"/><text fill="#000000" font-family="sans-serif" font-size="11" lengthAdjust="spacingAndGlyphs" textLength="125" x="848.5" y="1358.6714">RegTimestamp   int64</text><ellipse cx="839.5" cy="1368.2656" fill="none" rx="3" ry="3" style="stroke: #038048; stroke-width: 1.0;"/><text fill="#000000" font-family="sans-serif" font-size="11" lengthAdjust="spacingAndGlyphs" textLength="449" x="848.5" y="1371.4761">UpTimestamp    int64  // NOTE: It is latest timestamp that status becomes UP.</text><ellipse cx="839.5" cy="1381.0703" fill="none" rx="3" ry="3" style="stroke: #038048; stroke-width: 1.0;"/><text fill="#000000" font-family="sans-serif" font-size="11" lengthAdjust="spacingAndGlyphs" textLength="133" x="848.5" y="1384.2808">RenewTimestamp int64</text><ellipse cx="839.5" cy="1393.875" fill="none" rx="3" ry="3" style="stroke: #038048; stroke-width: 1.0;"/><text fill="#000000" font-family="sans-serif" font-size="11" lengthAdjust="spacingAndGlyphs" textLength="122" x="848.5" y="1397.0854">DirtyTimestamp int64</text><text fill="#000000" font-family="sans-serif" font-size="11" lengthAdjust="spacingAndGlyphs" textLength="0" x="852.5" y="1409.8901"/><ellipse cx="839.5" cy="1419.4844" fill="none" rx="3" ry="3" style="stroke: #038048; stroke-width: 1.0;"/><text fill="#000000" font-family="sans-serif" font-size="11" lengthAdjust="spacingAndGlyphs" textLength="131" x="848.5" y="1422.6948">LatestTimestamp int64</text><line style="stroke: #A80036; stroke-width: 1.5;" x1="829.5" x2="1302.5" y1="1429.2891" y2="1429.2891"/><rect fill="#FEFECE" filter="url(#f1nj4y3ovnw8uw)" height="227.2656" id="Node" style="stroke: #A80036; stroke-width: 1.5;" width="183" x="1198.5" y="674"/><ellipse cx="1269.25" cy="690" fill="#ADD1B2" rx="11" ry="11" style="stroke: #A80036; stroke-width: 1.0;"/><path d="M1272.2188,695.6406 Q1271.6406,695.9375 1271,696.0859 Q1270.3594,696.2344 1269.6563,696.2344 Q1267.1563,696.2344 1265.8359,694.5859 Q1264.5156,692.9375 1264.5156,689.8125 Q1264.5156,686.6875 1265.8359,685.0313 Q1267.1563,683.375 1269.6563,683.375 Q1270.3594,683.375 1271.0078,683.5313 Q1271.6563,683.6875 1272.2188,683.9844 L1272.2188,686.7031 Q1271.5938,686.125 1271,685.8516 Q1270.4063,685.5781 1269.7813,685.5781 Q1268.4375,685.5781 1267.75,686.6484 Q1267.0625,687.7188 1267.0625,689.8125 Q1267.0625,691.9063 1267.75,692.9766 Q1268.4375,694.0469 1269.7813,694.0469 Q1270.4063,694.0469 1271,693.7734 Q1271.5938,693.5 1272.2188,692.9219 L1272.2188,695.6406 Z "/><text fill="#000000" font-family="sans-serif" font-size="12" lengthAdjust="spacingAndGlyphs" textLength="33" x="1289.75" y="694.1543">Node</text><line style="stroke: #A80036; stroke-width: 1.5;" x1="1199.5" x2="1380.5" y1="706" y2="706"/><rect fill="none" height="6" style="stroke: #C82930; stroke-width: 1.0;" width="6" x="1206.5" y="714"/><text fill="#000000" font-family="sans-serif" font-size="11" lengthAdjust="spacingAndGlyphs" textLength="80" x="1218.5" y="720.2104">c *conf.Config</text><text fill="#000000" font-family="sans-serif" font-size="11" lengthAdjust="spacingAndGlyphs" textLength="0" x="1222.5" y="733.0151"/><text fill="#000000" font-family="sans-serif" font-size="11" lengthAdjust="spacingAndGlyphs" textLength="27" x="1218.5" y="745.8198">// url</text><rect fill="none" height="6" style="stroke: #C82930; stroke-width: 1.0;" width="6" x="1206.5" y="752.4141"/><text fill="#000000" font-family="sans-serif" font-size="11" lengthAdjust="spacingAndGlyphs" textLength="122" x="1218.5" y="758.6245">client       *http.Client</text><rect fill="none" height="6" style="stroke: #C82930; stroke-width: 1.0;" width="6" x="1206.5" y="765.2188"/><text fill="#000000" font-family="sans-serif" font-size="11" lengthAdjust="spacingAndGlyphs" textLength="112" x="1218.5" y="771.4292">pRegisterURL string</text><rect fill="none" height="6" style="stroke: #C82930; stroke-width: 1.0;" width="6" x="1206.5" y="778.0234"/><text fill="#000000" font-family="sans-serif" font-size="11" lengthAdjust="spacingAndGlyphs" textLength="107" x="1218.5" y="784.2339">registerURL  string</text><rect fill="none" height="6" style="stroke: #C82930; stroke-width: 1.0;" width="6" x="1206.5" y="790.8281"/><text fill="#000000" font-family="sans-serif" font-size="11" lengthAdjust="spacingAndGlyphs" textLength="106" x="1218.5" y="797.0386">cancelURL    string</text><rect fill="none" height="6" style="stroke: #C82930; stroke-width: 1.0;" width="6" x="1206.5" y="803.6328"/><text fill="#000000" font-family="sans-serif" font-size="11" lengthAdjust="spacingAndGlyphs" textLength="109" x="1218.5" y="809.8433">renewURL     string</text><rect fill="none" height="6" style="stroke: #C82930; stroke-width: 1.0;" width="6" x="1206.5" y="816.4375"/><text fill="#000000" font-family="sans-serif" font-size="11" lengthAdjust="spacingAndGlyphs" textLength="100" x="1218.5" y="822.6479">setURL       string</text><text fill="#000000" font-family="sans-serif" font-size="11" lengthAdjust="spacingAndGlyphs" textLength="0" x="1222.5" y="835.4526"/><rect fill="none" height="6" style="stroke: #C82930; stroke-width: 1.0;" width="6" x="1206.5" y="842.0469"/><text fill="#000000" font-family="sans-serif" font-size="11" lengthAdjust="spacingAndGlyphs" textLength="83" x="1218.5" y="848.2573">addr      string</text><rect fill="none" height="6" style="stroke: #C82930; stroke-width: 1.0;" width="6" x="1206.5" y="854.8516"/><text fill="#000000" font-family="sans-serif" font-size="11" lengthAdjust="spacingAndGlyphs" textLength="157" x="1218.5" y="861.062">status    model.NodeStatus</text><rect fill="none" height="6" style="stroke: #C82930; stroke-width: 1.0;" width="6" x="1206.5" y="867.6563"/><text fill="#000000" font-family="sans-serif" font-size="11" lengthAdjust="spacingAndGlyphs" textLength="83" x="1218.5" y="873.8667">zone      string</text><rect fill="none" height="6" style="stroke: #C82930; stroke-width: 1.0;" width="6" x="1206.5" y="880.4609"/><text fill="#000000" font-family="sans-serif" font-size="11" lengthAdjust="spacingAndGlyphs" textLength="85" x="1218.5" y="886.6714">otherZone boo</text><line style="stroke: #A80036; stroke-width: 1.5;" x1="1199.5" x2="1380.5" y1="893.2656" y2="893.2656"/><rect fill="#FEFECE" filter="url(#f1nj4y3ovnw8uw)" height="99.2188" id="Scheduler" style="stroke: #A80036; stroke-width: 1.5;" width="382" x="551" y="738"/><ellipse cx="706.25" cy="754" fill="#ADD1B2" rx="11" ry="11" style="stroke: #A80036; stroke-width: 1.0;"/><path d="M709.2188,759.6406 Q708.6406,759.9375 708,760.0859 Q707.3594,760.2344 706.6563,760.2344 Q704.1563,760.2344 702.8359,758.5859 Q701.5156,756.9375 701.5156,753.8125 Q701.5156,750.6875 702.8359,749.0313 Q704.1563,747.375 706.6563,747.375 Q707.3594,747.375 708.0078,747.5313 Q708.6563,747.6875 709.2188,747.9844 L709.2188,750.7031 Q708.5938,750.125 708,749.8516 Q707.4063,749.5781 706.7813,749.5781 Q705.4375,749.5781 704.75,750.6484 Q704.0625,751.7188 704.0625,753.8125 Q704.0625,755.9063 704.75,756.9766 Q705.4375,758.0469 706.7813,758.0469 Q707.4063,758.0469 708,757.7734 Q708.5938,757.5 709.2188,756.9219 L709.2188,759.6406 Z "/><text fill="#000000" font-family="sans-serif" font-size="12" lengthAdjust="spacingAndGlyphs" textLength="63" x="726.75" y="758.1543">Scheduler</text><line style="stroke: #A80036; stroke-width: 1.5;" x1="552" x2="932" y1="770" y2="770"/><ellipse cx="562" cy="781" fill="none" rx="3" ry="3" style="stroke: #038048; stroke-width: 1.0;"/><text fill="#000000" font-family="sans-serif" font-size="11" lengthAdjust="spacingAndGlyphs" textLength="304" x="571" y="784.2104">AppID   string                   `json:"app_id,omitempty"`</text><ellipse cx="562" cy="793.8047" fill="none" rx="3" ry="3" style="stroke: #038048; stroke-width: 1.0;"/><text fill="#000000" font-family="sans-serif" font-size="11" lengthAdjust="spacingAndGlyphs" textLength="283" x="571" y="797.0151">Env     string                   `json:"env,omitempty"`</text><ellipse cx="562" cy="806.6094" fill="none" rx="3" ry="3" style="stroke: #038048; stroke-width: 1.0;"/><text fill="#000000" font-family="sans-serif" font-size="11" lengthAdjust="spacingAndGlyphs" textLength="356" x="571" y="809.8198">Clients map[string]*ZoneStrategy `json:"clients"` // zone-ratio</text><ellipse cx="562" cy="819.4141" fill="none" rx="3" ry="3" style="stroke: #038048; stroke-width: 1.0;"/><text fill="#000000" font-family="sans-serif" font-size="11" lengthAdjust="spacingAndGlyphs" textLength="251" x="571" y="822.6245">Remark  string                   `json:"remark"`</text><line style="stroke: #A80036; stroke-width: 1.5;" x1="552" x2="932" y1="829.2188" y2="829.2188"/><rect fill="#FEFECE" filter="url(#f1nj4y3ovnw8uw)" height="86.4141" id="Apps" style="stroke: #A80036; stroke-width: 1.5;" width="195" x="968.5" y="744.5"/><ellipse cx="1046.25" cy="760.5" fill="#ADD1B2" rx="11" ry="11" style="stroke: #A80036; stroke-width: 1.0;"/><path d="M1049.2188,766.1406 Q1048.6406,766.4375 1048,766.5859 Q1047.3594,766.7344 1046.6563,766.7344 Q1044.1563,766.7344 1042.8359,765.0859 Q1041.5156,763.4375 1041.5156,760.3125 Q1041.5156,757.1875 1042.8359,755.5313 Q1044.1563,753.875 1046.6563,753.875 Q1047.3594,753.875 1048.0078,754.0313 Q1048.6563,754.1875 1049.2188,754.4844 L1049.2188,757.2031 Q1048.5938,756.625 1048,756.3516 Q1047.4063,756.0781 1046.7813,756.0781 Q1045.4375,756.0781 1044.75,757.1484 Q1044.0625,758.2188 1044.0625,760.3125 Q1044.0625,762.4063 1044.75,763.4766 Q1045.4375,764.5469 1046.7813,764.5469 Q1047.4063,764.5469 1048,764.2734 Q1048.5938,764 1049.2188,763.4219 L1049.2188,766.1406 Z "/><text fill="#000000" font-family="sans-serif" font-size="12" lengthAdjust="spacingAndGlyphs" textLength="31" x="1066.75" y="764.6543">Apps</text><line style="stroke: #A80036; stroke-width: 1.5;" x1="969.5" x2="1162.5" y1="776.5" y2="776.5"/><rect fill="none" height="6" style="stroke: #C82930; stroke-width: 1.0;" width="6" x="976.5" y="784.5"/><text fill="#000000" font-family="sans-serif" font-size="11" lengthAdjust="spacingAndGlyphs" textLength="169" x="988.5" y="790.7104">apps            map[string]*App</text><rect fill="none" height="6" style="stroke: #C82930; stroke-width: 1.0;" width="6" x="976.5" y="797.3047"/><text fill="#000000" font-family="sans-serif" font-size="11" lengthAdjust="spacingAndGlyphs" textLength="149" x="988.5" y="803.5151">lock            sync.RWMutex</text><rect fill="none" height="6" style="stroke: #C82930; stroke-width: 1.0;" width="6" x="976.5" y="810.1094"/><text fill="#000000" font-family="sans-serif" font-size="11" lengthAdjust="spacingAndGlyphs" textLength="128" x="988.5" y="816.3198">latestTimestamp int64</text><line style="stroke: #A80036; stroke-width: 1.5;" x1="969.5" x2="1162.5" y1="822.9141" y2="822.9141"/><rect fill="#FEFECE" filter="url(#f1nj4y3ovnw8uw)" height="124.8281" id="App" style="stroke: #A80036; stroke-width: 1.5;" width="229" x="951.5" y="961"/><ellipse cx="1049.75" cy="977" fill="#ADD1B2" rx="11" ry="11" style="stroke: #A80036; stroke-width: 1.0;"/><path d="M1052.7188,982.6406 Q1052.1406,982.9375 1051.5,983.0859 Q1050.8594,983.2344 1050.1563,983.2344 Q1047.6563,983.2344 1046.3359,981.5859 Q1045.0156,979.9375 1045.0156,976.8125 Q1045.0156,973.6875 1046.3359,972.0313 Q1047.6563,970.375 1050.1563,970.375 Q1050.8594,970.375 1051.5078,970.5313 Q1052.1563,970.6875 1052.7188,970.9844 L1052.7188,973.7031 Q1052.0938,973.125 1051.5,972.8516 Q1050.9063,972.5781 1050.2813,972.5781 Q1048.9375,972.5781 1048.25,973.6484 Q1047.5625,974.7188 1047.5625,976.8125 Q1047.5625,978.9063 1048.25,979.9766 Q1048.9375,981.0469 1050.2813,981.0469 Q1050.9063,981.0469 1051.5,980.7734 Q1052.0938,980.5 1052.7188,979.9219 L1052.7188,982.6406 Z "/><text fill="#000000" font-family="sans-serif" font-size="12" lengthAdjust="spacingAndGlyphs" textLength="24" x="1070.25" y="981.1543">App</text><line style="stroke: #A80036; stroke-width: 1.5;" x1="952.5" x2="1179.5" y1="993" y2="993"/><ellipse cx="962.5" cy="1004" fill="none" rx="3" ry="3" style="stroke: #038048; stroke-width: 1.0;"/><text fill="#000000" font-family="sans-serif" font-size="11" lengthAdjust="spacingAndGlyphs" textLength="109" x="971.5" y="1007.2104">AppID           string</text><ellipse cx="962.5" cy="1016.8047" fill="none" rx="3" ry="3" style="stroke: #038048; stroke-width: 1.0;"/><text fill="#000000" font-family="sans-serif" font-size="11" lengthAdjust="spacingAndGlyphs" textLength="111" x="971.5" y="1020.0151">Zone            string</text><rect fill="none" height="6" style="stroke: #C82930; stroke-width: 1.0;" width="6" x="959.5" y="1026.6094"/><text fill="#000000" font-family="sans-serif" font-size="11" lengthAdjust="spacingAndGlyphs" textLength="203" x="971.5" y="1032.8198">instances       map[string]*Instance</text><rect fill="none" height="6" style="stroke: #C82930; stroke-width: 1.0;" width="6" x="959.5" y="1039.4141"/><text fill="#000000" font-family="sans-serif" font-size="11" lengthAdjust="spacingAndGlyphs" textLength="128" x="971.5" y="1045.6245">latestTimestamp int64</text><text fill="#000000" font-family="sans-serif" font-size="11" lengthAdjust="spacingAndGlyphs" textLength="0" x="975.5" y="1058.4292"/><rect fill="none" height="6" style="stroke: #C82930; stroke-width: 1.0;" width="6" x="959.5" y="1065.0234"/><text fill="#000000" font-family="sans-serif" font-size="11" lengthAdjust="spacingAndGlyphs" textLength="105" x="971.5" y="1071.2339">lock sync.RWMutex</text><line style="stroke: #A80036; stroke-width: 1.5;" x1="952.5" x2="1179.5" y1="1077.8281" y2="1077.8281"/><rect fill="#FEFECE" filter="url(#f1nj4y3ovnw8uw)" height="124.8281" id="Registry" style="stroke: #A80036; stroke-width: 1.5;" width="367" x="611.5" y="234"/><ellipse cx="765.75" cy="250" fill="#ADD1B2" rx="11" ry="11" style="stroke: #A80036; stroke-width: 1.0;"/><path d="M768.7188,255.6406 Q768.1406,255.9375 767.5,256.0859 Q766.8594,256.2344 766.1563,256.2344 Q763.6563,256.2344 762.3359,254.5859 Q761.0156,252.9375 761.0156,249.8125 Q761.0156,246.6875 762.3359,245.0313 Q763.6563,243.375 766.1563,243.375 Q766.8594,243.375 767.5078,243.5313 Q768.1563,243.6875 768.7188,243.9844 L768.7188,246.7031 Q768.0938,246.125 767.5,245.8516 Q766.9063,245.5781 766.2813,245.5781 Q764.9375,245.5781 764.25,246.6484 Q763.5625,247.7188 763.5625,249.8125 Q763.5625,251.9063 764.25,252.9766 Q764.9375,254.0469 766.2813,254.0469 Q766.9063,254.0469 767.5,253.7734 Q768.0938,253.5 768.7188,252.9219 L768.7188,255.6406 Z "/><text fill="#000000" font-family="sans-serif" font-size="12" lengthAdjust="spacingAndGlyphs" textLength="50" x="786.25" y="254.1543">Registry</text><line style="stroke: #A80036; stroke-width: 1.5;" x1="612.5" x2="977.5" y1="266" y2="266"/><rect fill="none" height="6" style="stroke: #C82930; stroke-width: 1.0;" width="6" x="619.5" y="274"/><text fill="#000000" font-family="sans-serif" font-size="11" lengthAdjust="spacingAndGlyphs" textLength="299" x="631.5" y="280.2104">appm  map[string]*model.Apps // appid-env -&gt; apps</text><rect fill="none" height="6" style="stroke: #C82930; stroke-width: 1.0;" width="6" x="619.5" y="286.8047"/><text fill="#000000" font-family="sans-serif" font-size="11" lengthAdjust="spacingAndGlyphs" textLength="115" x="631.5" y="293.0151">aLock sync.RWMutex</text><rect fill="none" height="6" style="stroke: #C82930; stroke-width: 1.0;" width="6" x="619.5" y="299.6094"/><text fill="#000000" font-family="sans-serif" font-size="11" lengthAdjust="spacingAndGlyphs" textLength="341" x="631.5" y="305.8198">conns     map[string]*hosts // region.zone.env.appid-&gt; host</text><rect fill="none" height="6" style="stroke: #C82930; stroke-width: 1.0;" width="6" x="619.5" y="312.4141"/><text fill="#000000" font-family="sans-serif" font-size="11" lengthAdjust="spacingAndGlyphs" textLength="130" x="631.5" y="318.6245">cLock     sync.RWMutex</text><rect fill="none" height="6" style="stroke: #C82930; stroke-width: 1.0;" width="6" x="619.5" y="325.2188"/><text fill="#000000" font-family="sans-serif" font-size="11" lengthAdjust="spacingAndGlyphs" textLength="122" x="631.5" y="331.4292">scheduler *scheduler</text><rect fill="none" height="6" style="stroke: #C82930; stroke-width: 1.0;" width="6" x="619.5" y="338.0234"/><text fill="#000000" font-family="sans-serif" font-size="11" lengthAdjust="spacingAndGlyphs" textLength="87" x="631.5" y="344.2339">gd        *Guard</text><line style="stroke: #A80036; stroke-width: 1.5;" x1="612.5" x2="977.5" y1="350.8281" y2="350.8281"/><rect fill="#FEFECE" filter="url(#f1nj4y3ovnw8uw)" height="86.4141" id="scheduler" style="stroke: #A80036; stroke-width: 1.5;" width="261" x="611.5" y="515"/><ellipse cx="706.75" cy="531" fill="#ADD1B2" rx="11" ry="11" style="stroke: #A80036; stroke-width: 1.0;"/><path d="M709.7188,536.6406 Q709.1406,536.9375 708.5,537.0859 Q707.8594,537.2344 707.1563,537.2344 Q704.6563,537.2344 703.3359,535.5859 Q702.0156,533.9375 702.0156,530.8125 Q702.0156,527.6875 703.3359,526.0313 Q704.6563,524.375 707.1563,524.375 Q707.8594,524.375 708.5078,524.5313 Q709.1563,524.6875 709.7188,524.9844 L709.7188,527.7031 Q709.0938,527.125 708.5,526.8516 Q707.9063,526.5781 707.2813,526.5781 Q705.9375,526.5781 705.25,527.6484 Q704.5625,528.7188 704.5625,530.8125 Q704.5625,532.9063 705.25,533.9766 Q705.9375,535.0469 707.2813,535.0469 Q707.9063,535.0469 708.5,534.7734 Q709.0938,534.5 709.7188,533.9219 L709.7188,536.6406 Z "/><text fill="#000000" font-family="sans-serif" font-size="12" lengthAdjust="spacingAndGlyphs" textLength="62" x="727.25" y="535.1543">scheduler</text><line style="stroke: #A80036; stroke-width: 1.5;" x1="612.5" x2="871.5" y1="547" y2="547"/><rect fill="none" height="6" style="stroke: #C82930; stroke-width: 1.0;" width="6" x="619.5" y="555"/><text fill="#000000" font-family="sans-serif" font-size="11" lengthAdjust="spacingAndGlyphs" textLength="235" x="631.5" y="561.2104">schedulers map[string]*model.Scheduler</text><rect fill="none" height="6" style="stroke: #C82930; stroke-width: 1.0;" width="6" x="619.5" y="567.8047"/><text fill="#000000" font-family="sans-serif" font-size="11" lengthAdjust="spacingAndGlyphs" textLength="138" x="631.5" y="574.0151">mutex      sync.RWMutex</text><rect fill="none" height="6" style="stroke: #C82930; stroke-width: 1.0;" width="6" x="619.5" y="580.6094"/><text fill="#000000" font-family="sans-serif" font-size="11" lengthAdjust="spacingAndGlyphs" textLength="97" x="631.5" y="586.8198">r          *Registry</text><line style="stroke: #A80036; stroke-width: 1.5;" x1="612.5" x2="871.5" y1="593.4141" y2="593.4141"/><rect fill="#FEFECE" filter="url(#f1nj4y3ovnw8uw)" height="112.0234" id="Guard" style="stroke: #A80036; stroke-width: 1.5;" width="163" x="907.5" y="502"/><ellipse cx="965.75" cy="518" fill="#ADD1B2" rx="11" ry="11" style="stroke: #A80036; stroke-width: 1.0;"/><path d="M968.7188,523.6406 Q968.1406,523.9375 967.5,524.0859 Q966.8594,524.2344 966.1563,524.2344 Q963.6563,524.2344 962.3359,522.5859 Q961.0156,520.9375 961.0156,517.8125 Q961.0156,514.6875 962.3359,513.0313 Q963.6563,511.375 966.1563,511.375 Q966.8594,511.375 967.5078,511.5313 Q968.1563,511.6875 968.7188,511.9844 L968.7188,514.7031 Q968.0938,514.125 967.5,513.8516 Q966.9063,513.5781 966.2813,513.5781 Q964.9375,513.5781 964.25,514.6484 Q963.5625,515.7188 963.5625,517.8125 Q963.5625,519.9063 964.25,520.9766 Q964.9375,522.0469 966.2813,522.0469 Q966.9063,522.0469 967.5,521.7734 Q968.0938,521.5 968.7188,520.9219 L968.7188,523.6406 Z "/><text fill="#000000" font-family="sans-serif" font-size="12" lengthAdjust="spacingAndGlyphs" textLength="38" x="986.25" y="522.1543">Guard</text><line style="stroke: #A80036; stroke-width: 1.5;" x1="908.5" x2="1069.5" y1="534" y2="534"/><rect fill="none" height="6" style="stroke: #C82930; stroke-width: 1.0;" width="6" x="915.5" y="542"/><text fill="#000000" font-family="sans-serif" font-size="11" lengthAdjust="spacingAndGlyphs" textLength="102" x="927.5" y="548.2104">expPerMin    int64</text><rect fill="none" height="6" style="stroke: #C82930; stroke-width: 1.0;" width="6" x="915.5" y="554.8047"/><text fill="#000000" font-family="sans-serif" font-size="11" lengthAdjust="spacingAndGlyphs" textLength="109" x="927.5" y="561.0151">expThreshold int64</text><rect fill="none" height="6" style="stroke: #C82930; stroke-width: 1.0;" width="6" x="915.5" y="567.6094"/><text fill="#000000" font-family="sans-serif" font-size="11" lengthAdjust="spacingAndGlyphs" textLength="94" x="927.5" y="573.8198">facInMin     int64</text><rect fill="none" height="6" style="stroke: #C82930; stroke-width: 1.0;" width="6" x="915.5" y="580.4141"/><text fill="#000000" font-family="sans-serif" font-size="11" lengthAdjust="spacingAndGlyphs" textLength="100" x="927.5" y="586.6245">facLastMin   int64</text><rect fill="none" height="6" style="stroke: #C82930; stroke-width: 1.0;" width="6" x="915.5" y="593.2188"/><text fill="#000000" font-family="sans-serif" font-size="11" lengthAdjust="spacingAndGlyphs" textLength="137" x="927.5" y="599.4292">lock         sync.RWMutex</text><line style="stroke: #A80036; stroke-width: 1.5;" x1="908.5" x2="1069.5" y1="606.0234" y2="606.0234"/><rect fill="#FEFECE" filter="url(#f1nj4y3ovnw8uw)" height="86.4141" id="Nodes" style="stroke: #A80036; stroke-width: 1.5;" width="184" x="1014" y="253.5"/><ellipse cx="1081.75" cy="269.5" fill="#ADD1B2" rx="11" ry="11" style="stroke: #A80036; stroke-width: 1.0;"/><path d="M1084.7188,275.1406 Q1084.1406,275.4375 1083.5,275.5859 Q1082.8594,275.7344 1082.1563,275.7344 Q1079.6563,275.7344 1078.3359,274.0859 Q1077.0156,272.4375 1077.0156,269.3125 Q1077.0156,266.1875 1078.3359,264.5313 Q1079.6563,262.875 1082.1563,262.875 Q1082.8594,262.875 1083.5078,263.0313 Q1084.1563,263.1875 1084.7188,263.4844 L1084.7188,266.2031 Q1084.0938,265.625 1083.5,265.3516 Q1082.9063,265.0781 1082.2813,265.0781 Q1080.9375,265.0781 1080.25,266.1484 Q1079.5625,267.2188 1079.5625,269.3125 Q1079.5625,271.4063 1080.25,272.4766 Q1080.9375,273.5469 1082.2813,273.5469 Q1082.9063,273.5469 1083.5,273.2734 Q1084.0938,273 1084.7188,272.4219 L1084.7188,275.1406 Z "/><text fill="#000000" font-family="sans-serif" font-size="12" lengthAdjust="spacingAndGlyphs" textLength="40" x="1102.25" y="273.6543">Nodes</text><line style="stroke: #A80036; stroke-width: 1.5;" x1="1015" x2="1197" y1="285.5" y2="285.5"/><rect fill="none" height="6" style="stroke: #C82930; stroke-width: 1.0;" width="6" x="1022" y="293.5"/><text fill="#000000" font-family="sans-serif" font-size="11" lengthAdjust="spacingAndGlyphs" textLength="94" x="1034" y="299.7104">nodes    []*Node</text><rect fill="none" height="6" style="stroke: #C82930; stroke-width: 1.0;" width="6" x="1022" y="306.3047"/><text fill="#000000" font-family="sans-serif" font-size="11" lengthAdjust="spacingAndGlyphs" textLength="158" x="1034" y="312.5151">zones    map[string][]*Node</text><rect fill="none" height="6" style="stroke: #C82930; stroke-width: 1.0;" width="6" x="1022" y="319.1094"/><text fill="#000000" font-family="sans-serif" font-size="11" lengthAdjust="spacingAndGlyphs" textLength="84" x="1034" y="325.3198">selfAddr string</text><line style="stroke: #A80036; stroke-width: 1.5;" x1="1015" x2="1197" y1="331.9141" y2="331.9141"/><rect fill="#FEFECE" filter="url(#f1nj4y3ovnw8uw)" height="48" id="httpServer" style="stroke: #A80036; stroke-width: 1.5;" width="98" x="60" y="43"/><ellipse cx="75" cy="59" fill="#ADD1B2" rx="11" ry="11" style="stroke: #A80036; stroke-width: 1.0;"/><path d="M77.9688,64.6406 Q77.3906,64.9375 76.75,65.0859 Q76.1094,65.2344 75.4063,65.2344 Q72.9063,65.2344 71.5859,63.5859 Q70.2656,61.9375 70.2656,58.8125 Q70.2656,55.6875 71.5859,54.0313 Q72.9063,52.375 75.4063,52.375 Q76.1094,52.375 76.7578,52.5313 Q77.4063,52.6875 77.9688,52.9844 L77.9688,55.7031 Q77.3438,55.125 76.75,54.8516 Q76.1563,54.5781 75.5313,54.5781 Q74.1875,54.5781 73.5,55.6484 Q72.8125,56.7188 72.8125,58.8125 Q72.8125,60.9063 73.5,61.9766 Q74.1875,63.0469 75.5313,63.0469 Q76.1563,63.0469 76.75,62.7734 Q77.3438,62.5 77.9688,61.9219 L77.9688,64.6406 Z "/><text fill="#000000" font-family="sans-serif" font-size="12" lengthAdjust="spacingAndGlyphs" textLength="66" x="89" y="63.1543">httpServer</text><line style="stroke: #A80036; stroke-width: 1.5;" x1="61" x2="157" y1="75" y2="75"/><line style="stroke: #A80036; stroke-width: 1.5;" x1="61" x2="157" y1="83" y2="83"/><rect fill="#FEFECE" filter="url(#f1nj4y3ovnw8uw)" height="48" id="HttpClient" style="stroke: #A80036; stroke-width: 1.5;" width="94" x="482" y="272.5"/><ellipse cx="497" cy="288.5" fill="#ADD1B2" rx="11" ry="11" style="stroke: #A80036; stroke-width: 1.0;"/><path d="M499.9688,294.1406 Q499.3906,294.4375 498.75,294.5859 Q498.1094,294.7344 497.4063,294.7344 Q494.9063,294.7344 493.5859,293.0859 Q492.2656,291.4375 492.2656,288.3125 Q492.2656,285.1875 493.5859,283.5313 Q494.9063,281.875 497.4063,281.875 Q498.1094,281.875 498.7578,282.0313 Q499.4063,282.1875 499.9688,282.4844 L499.9688,285.2031 Q499.3438,284.625 498.75,284.3516 Q498.1563,284.0781 497.5313,284.0781 Q496.1875,284.0781 495.5,285.1484 Q494.8125,286.2188 494.8125,288.3125 Q494.8125,290.4063 495.5,291.4766 Q496.1875,292.5469 497.5313,292.5469 Q498.1563,292.5469 498.75,292.2734 Q499.3438,292 499.9688,291.4219 L499.9688,294.1406 Z "/><text fill="#000000" font-family="sans-serif" font-size="12" lengthAdjust="spacingAndGlyphs" textLength="62" x="511" y="292.6543">HttpClient</text><line style="stroke: #A80036; stroke-width: 1.5;" x1="483" x2="575" y1="304.5" y2="304.5"/><line style="stroke: #A80036; stroke-width: 1.5;" x1="483" x2="575" y1="312.5" y2="312.5"/><path d="M196.1484,296.5 C206.1273,296.5 216.1062,296.5 226.085,296.5 " fill="none" id="Discovery-&gt;Config" style="stroke: #A80036; stroke-width: 1.0;"/><polygon fill="#A80036" points="231.3033,296.5,222.3033,292.5,226.3033,296.5,222.3033,300.5,231.3033,296.5" style="stroke: #A80036; stroke-width: 1.0;"/><path d="M175.3762,150.9519 C191.0059,133.1901 209.8834,118.7478 232.5,111.5 C277.5753,97.0549 400.4247,97.0549 445.5,111.5 C507.8617,131.4847 523.6853,219.9445 527.6746,266.9318 " fill="none" id="Discovery-&gt;HttpClient" style="stroke: #A80036; stroke-width: 1.0;"/><polygon fill="#A80036" points="528.0851,272.1734,531.3701,262.8885,527.6947,267.1887,523.3946,263.5132,528.0851,272.1734" style="stroke: #A80036; stroke-width: 1.0;"/><path d="M175.3762,150.9519 C191.0059,133.1901 209.8834,118.7478 232.5,111.5 C268.793,99.8693 539.207,99.8693 575.5,111.5 C641.84,132.7597 701.1754,185.9585 741.377,229.8793 " fill="none" id="Discovery-&gt;Registry" style="stroke: #A80036; stroke-width: 1.0;"/><polygon fill="#A80036" points="744.9643,233.8296,741.8749,224.4778,741.6029,230.1282,735.9525,229.8562,744.9643,233.8296" style="stroke: #A80036; stroke-width: 1.0;"/><path d="M872.4082,359.0919 C909.31,387.943 954.5718,421.9301 997,450 C1035.8494,475.7022 1064.6193,461.7108 1088,502 C1130.9578,576.024 1106.1877,679.6051 1085.3558,739.511 " fill="none" id="Registry-&gt;Apps" style="stroke: #A80036; stroke-width: 1.0;"/><polygon fill="#A80036" points="1083.6098,744.4581,1090.3772,737.3026,1085.274,739.7432,1082.8334,734.6399,1083.6098,744.4581" style="stroke: #A80036; stroke-width: 1.0;"/><text fill="#000000" font-family="sans-serif" font-size="13" lengthAdjust="spacingAndGlyphs" textLength="8" x="1077.7789" y="733.4475">n</text><path d="M1066,830.5116 C1066,865.3747 1066,915.1493 1066,955.4164 " fill="none" id="Apps-&gt;App" style="stroke: #A80036; stroke-width: 1.0;"/><polygon fill="#A80036" points="1066,960.7804,1070,951.7804,1066,955.7804,1062,951.7804,1066,960.7804" style="stroke: #A80036; stroke-width: 1.0;"/><text fill="#000000" font-family="sans-serif" font-size="13" lengthAdjust="spacingAndGlyphs" textLength="8" x="1057.5375" y="949.7458">n</text><path d="M1066,1086.3341 C1066,1102.8799 1066,1121.4649 1066,1140.5154 " fill="none" id="App-&gt;Instance" style="stroke: #A80036; stroke-width: 1.0;"/><polygon fill="#A80036" points="1066,1145.8997,1070,1136.8997,1066,1140.8997,1062,1136.8997,1066,1145.8997" style="stroke: #A80036; stroke-width: 1.0;"/><text fill="#000000" font-family="sans-serif" font-size="13" lengthAdjust="spacingAndGlyphs" textLength="8" x="1057.7938" y="1135.0683">n</text><path d="M782.3052,359.1358 C772.5667,407.1851 759.3772,472.2615 750.7802,514.6788 " fill="none" id="Registry-scheduler" style="stroke: #A80036; stroke-width: 1.0;"/><path d="M742,601.1672 C742,638.3226 742,692.1492 742,732.4063 " fill="none" id="scheduler-&gt;Scheduler" style="stroke: #A80036; stroke-width: 1.0;"/><polygon fill="#A80036" points="742,737.7439,746,728.7439,742,732.7439,738,728.7439,742,737.7439" style="stroke: #A80036; stroke-width: 1.0;"/><text fill="#000000" font-family="sans-serif" font-size="13" lengthAdjust="spacingAndGlyphs" textLength="8" x="733.4625" y="727.1112">n</text><path d="M841.4678,359.1358 C872.5712,401.0612 913.2918,455.95 944.071,497.4384 " fill="none" id="Registry-&gt;Guard" style="stroke: #A80036; stroke-width: 1.0;"/><polygon fill="#A80036" points="947.2062,501.6645,945.0562,492.0532,944.2271,497.6489,938.6313,496.8198,947.2062,501.6645" style="stroke: #A80036; stroke-width: 1.0;"/><path d="M175.3762,150.9519 C191.0059,133.1901 209.8834,118.7478 232.5,111.5 C271.9674,98.8521 939.0326,98.8521 978.5,111.5 C1039.0131,130.8923 1074.1411,200.5179 1091.6875,248.5923 " fill="none" id="Discovery-&gt;Nodes" style="stroke: #A80036; stroke-width: 1.0;"/><polygon fill="#A80036" points="1093.4334,253.4663,1094.1641,243.6446,1091.7473,248.7592,1086.6327,246.3424,1093.4334,253.4663" style="stroke: #A80036; stroke-width: 1.0;"/><path d="M1122.1675,339.6426 C1149.5161,412.6218 1205.8163,562.8577 1245.6521,669.1585 " fill="none" id="Nodes-&gt;Node" style="stroke: #A80036; stroke-width: 1.0;"/><polygon fill="#A80036" points="1247.4176,673.8698,1248.0047,664.0385,1245.6629,669.1878,1240.5135,666.846,1247.4176,673.8698" style="stroke: #A80036; stroke-width: 1.0;"/><text fill="#000000" font-family="sans-serif" font-size="13" lengthAdjust="spacingAndGlyphs" textLength="8" x="1236.2878" y="662.7938">n</text><path d="M109,91.1268 C109,105.3502 109,124.6739 109,145.8066 " fill="none" id="httpServer-&gt;Discovery" style="stroke: #A80036; stroke-width: 1.0; stroke-dasharray: 7.0,7.0;"/><polygon fill="#A80036" points="109,150.9223,113,141.9223,109,145.9223,105,141.9223,109,150.9223" style="stroke: #A80036; stroke-width: 1.0;"/></g></svg>