<?xml version="1.0" encoding="UTF-8" standalone="no"?><svg xmlns="http://www.w3.org/2000/svg" xmlns:xlink="http://www.w3.org/1999/xlink" contentScriptType="application/ecmascript" contentStyleType="text/css" height="1121px" preserveAspectRatio="none" style="width:1283px;height:1121px;" version="1.1" viewBox="0 0 1283 1121" width="1283px" zoomAndPan="magnify"><defs><filter height="300%" id="ftjkw65pfksrv" width="300%" x="-1" y="-1"><feGaussianBlur result="blurOut" stdDeviation="2.0"/><feColorMatrix in="blurOut" result="blurOut2" type="matrix" values="0 0 0 0 0 0 0 0 0 0 0 0 0 0 0 0 0 0 .4 0"/><feOffset dx="4.0" dy="4.0" in="blurOut2" result="blurOut3"/><feBlend in="SourceGraphic" in2="blurOut3" mode="normal"/></filter></defs><g><polygon fill="#FFFFFF" filter="url(#ftjkw65pfksrv)" points="16,6,62,6,69,28.2969,919,28.2969,919,701,16,701,16,6" style="stroke: #000000; stroke-width: 1.5;"/><line style="stroke: #000000; stroke-width: 1.5;" x1="16" x2="69" y1="28.2969" y2="28.2969"/><text fill="#000000" font-family="sans-serif" font-size="14" font-weight="bold" lengthAdjust="spacingAndGlyphs" textLength="40" x="20" y="20.9951">redis</text><polygon fill="#FFFFFF" filter="url(#ftjkw65pfksrv)" points="932,387.5,972,387.5,979,409.7969,1261,409.7969,1261,1109,932,1109,932,387.5" style="stroke: #000000; stroke-width: 1.5;"/><line style="stroke: #000000; stroke-width: 1.5;" x1="932" x2="979" y1="409.7969" y2="409.7969"/><text fill="#000000" font-family="sans-serif" font-size="14" font-weight="bold" lengthAdjust="spacingAndGlyphs" textLength="34" x="936" y="402.4951">pool</text><rect codeLine="3" fill="#FEFECE" filter="url(#ftjkw65pfksrv)" height="355.3125" id="Options" style="stroke: #A80036; stroke-width: 1.5;" width="413" x="497.5" y="338"/><ellipse cx="675.75" cy="354" fill="#ADD1B2" rx="11" ry="11" style="stroke: #A80036; stroke-width: 1.0;"/><path d="M678.7188,359.6406 Q678.1406,359.9375 677.5,360.0859 Q676.8594,360.2344 676.1563,360.2344 Q673.6563,360.2344 672.3359,358.5859 Q671.0156,356.9375 671.0156,353.8125 Q671.0156,350.6875 672.3359,349.0313 Q673.6563,347.375 676.1563,347.375 Q676.8594,347.375 677.5078,347.5313 Q678.1563,347.6875 678.7188,347.9844 L678.7188,350.7031 Q678.0938,350.125 677.5,349.8516 Q676.9063,349.5781 676.2813,349.5781 Q674.9375,349.5781 674.25,350.6484 Q673.5625,351.7188 673.5625,353.8125 Q673.5625,355.9063 674.25,356.9766 Q674.9375,358.0469 676.2813,358.0469 Q676.9063,358.0469 677.5,357.7734 Q678.0938,357.5 678.7188,356.9219 L678.7188,359.6406 Z "/><text fill="#000000" font-family="sans-serif" font-size="12" lengthAdjust="spacingAndGlyphs" textLength="48" x="696.25" y="358.1543">Options</text><line style="stroke: #A80036; stroke-width: 1.5;" x1="498.5" x2="909.5" y1="370" y2="370"/><text fill="#000000" font-family="sans-serif" font-size="11" lengthAdjust="spacingAndGlyphs" textLength="83" x="503.5" y="384.2104">Network string</text><text fill="#000000" font-family="sans-serif" font-size="11" lengthAdjust="spacingAndGlyphs" textLength="63" x="503.5" y="397.0151">Addr string</text><text fill="#000000" font-family="sans-serif" font-size="11" lengthAdjust="spacingAndGlyphs" textLength="96" x="503.5" y="409.8198">Username string</text><text fill="#000000" font-family="sans-serif" font-size="11" lengthAdjust="spacingAndGlyphs" textLength="93" x="503.5" y="422.6245">Password string</text><text fill="#000000" font-family="sans-serif" font-size="11" lengthAdjust="spacingAndGlyphs" textLength="34" x="503.5" y="435.4292">DB int</text><text fill="#000000" font-family="sans-serif" font-size="11" lengthAdjust="spacingAndGlyphs" textLength="80" x="503.5" y="448.2339">MaxRetries int</text><text fill="#000000" font-family="sans-serif" font-size="11" lengthAdjust="spacingAndGlyphs" textLength="249" x="503.5" y="461.0386">MinRetryBackoff time.Duration //最小重试间隔</text><text fill="#000000" font-family="sans-serif" font-size="11" lengthAdjust="spacingAndGlyphs" textLength="256" x="503.5" y="473.8433">MaxRetryBackoff time.Duration // 最大重试间隔</text><text fill="#000000" font-family="sans-serif" font-size="11" lengthAdjust="spacingAndGlyphs" textLength="0" x="507.5" y="486.6479"/><text fill="#000000" font-family="sans-serif" font-size="11" lengthAdjust="spacingAndGlyphs" textLength="230" x="503.5" y="499.4526">DialTimeout time.Duration // 连接超时时间</text><text fill="#000000" font-family="sans-serif" font-size="11" lengthAdjust="spacingAndGlyphs" textLength="263" x="503.5" y="512.2573">ReadTimeout time.Duration // socket读超时时间</text><text fill="#000000" font-family="sans-serif" font-size="11" lengthAdjust="spacingAndGlyphs" textLength="267" x="503.5" y="525.062">WriteTimeout time.Duration // socket 写超时时间</text><text fill="#000000" font-family="sans-serif" font-size="11" lengthAdjust="spacingAndGlyphs" textLength="0" x="507.5" y="537.8667"/><text fill="#000000" font-family="sans-serif" font-size="11" lengthAdjust="spacingAndGlyphs" textLength="65" x="503.5" y="550.6714">PoolSize int</text><text fill="#000000" font-family="sans-serif" font-size="11" lengthAdjust="spacingAndGlyphs" textLength="93" x="503.5" y="563.4761">MinIdleConns int</text><text fill="#000000" font-family="sans-serif" font-size="11" lengthAdjust="spacingAndGlyphs" textLength="153" x="503.5" y="576.2808">MaxConnAge time.Duration</text><text fill="#000000" font-family="sans-serif" font-size="11" lengthAdjust="spacingAndGlyphs" textLength="332" x="503.5" y="589.0854">PoolTimeout time.Duration // 连接池中获取一个连接的超时时间</text><text fill="#000000" font-family="sans-serif" font-size="11" lengthAdjust="spacingAndGlyphs" textLength="251" x="503.5" y="601.8901">IdleTimeout time.Duration // 空闲连接回收时间</text><text fill="#000000" font-family="sans-serif" font-size="11" lengthAdjust="spacingAndGlyphs" textLength="330" x="503.5" y="614.6948">IdleCheckFrequency time.Duration // 检测空闲连接的时间间隔</text><text fill="#000000" font-family="sans-serif" font-size="11" lengthAdjust="spacingAndGlyphs" textLength="79" x="503.5" y="627.4995">readOnly bool</text><text fill="#000000" font-family="sans-serif" font-size="11" lengthAdjust="spacingAndGlyphs" textLength="121" x="503.5" y="640.3042">TLSConfig *tls.Config</text><text fill="#000000" font-family="sans-serif" font-size="11" lengthAdjust="spacingAndGlyphs" textLength="82" x="503.5" y="653.1089">Limiter Limiter</text><line style="stroke: #A80036; stroke-width: 1.5;" x1="498.5" x2="909.5" y1="659.7031" y2="659.7031"/><text fill="#000000" font-family="sans-serif" font-size="11" lengthAdjust="spacingAndGlyphs" textLength="401" x="503.5" y="673.9136">Dialer func(ctx context.Context, network, addr string) (net.Conn, error)</text><text fill="#000000" font-family="sans-serif" font-size="11" lengthAdjust="spacingAndGlyphs" textLength="299" x="503.5" y="686.7183">OnConnect func(ctx context.Context, cn *Conn) error</text><rect codeLine="30" fill="#FEFECE" filter="url(#ftjkw65pfksrv)" height="99.2188" id="Client" style="stroke: #A80036; stroke-width: 1.5;" width="142" x="517" y="33"/><ellipse cx="566.25" cy="49" fill="#ADD1B2" rx="11" ry="11" style="stroke: #A80036; stroke-width: 1.0;"/><path d="M569.2188,54.6406 Q568.6406,54.9375 568,55.0859 Q567.3594,55.2344 566.6563,55.2344 Q564.1563,55.2344 562.8359,53.5859 Q561.5156,51.9375 561.5156,48.8125 Q561.5156,45.6875 562.8359,44.0313 Q564.1563,42.375 566.6563,42.375 Q567.3594,42.375 568.0078,42.5313 Q568.6563,42.6875 569.2188,42.9844 L569.2188,45.7031 Q568.5938,45.125 568,44.8516 Q567.4063,44.5781 566.7813,44.5781 Q565.4375,44.5781 564.75,45.6484 Q564.0625,46.7188 564.0625,48.8125 Q564.0625,50.9063 564.75,51.9766 Q565.4375,53.0469 566.7813,53.0469 Q567.4063,53.0469 568,52.7734 Q568.5938,52.5 569.2188,51.9219 L569.2188,54.6406 Z "/><text fill="#000000" font-family="sans-serif" font-size="12" lengthAdjust="spacingAndGlyphs" textLength="35" x="586.75" y="53.1543">Client</text><line style="stroke: #A80036; stroke-width: 1.5;" x1="518" x2="658" y1="65" y2="65"/><text fill="#000000" font-family="sans-serif" font-size="11" lengthAdjust="spacingAndGlyphs" textLength="130" x="523" y="79.2104">baseClient *baseClient</text><text fill="#000000" font-family="sans-serif" font-size="11" lengthAdjust="spacingAndGlyphs" textLength="100" x="523" y="92.0151">cmdable cmdable</text><text fill="#000000" font-family="sans-serif" font-size="11" lengthAdjust="spacingAndGlyphs" textLength="72" x="523" y="104.8198">hooks hooks</text><text fill="#000000" font-family="sans-serif" font-size="11" lengthAdjust="spacingAndGlyphs" textLength="108" x="523" y="117.6245">ctx context.Context</text><line style="stroke: #A80036; stroke-width: 1.5;" x1="518" x2="658" y1="124.2188" y2="124.2188"/><rect codeLine="37" fill="#FEFECE" filter="url(#ftjkw65pfksrv)" height="86.4141" id="baseClient" style="stroke: #A80036; stroke-width: 1.5;" width="131" x="638.5" y="192"/><ellipse cx="668.35" cy="208" fill="#ADD1B2" rx="11" ry="11" style="stroke: #A80036; stroke-width: 1.0;"/><path d="M671.3188,213.6406 Q670.7406,213.9375 670.1,214.0859 Q669.4594,214.2344 668.7563,214.2344 Q666.2563,214.2344 664.9359,212.5859 Q663.6156,210.9375 663.6156,207.8125 Q663.6156,204.6875 664.9359,203.0313 Q666.2563,201.375 668.7563,201.375 Q669.4594,201.375 670.1078,201.5313 Q670.7563,201.6875 671.3188,201.9844 L671.3188,204.7031 Q670.6938,204.125 670.1,203.8516 Q669.5063,203.5781 668.8813,203.5781 Q667.5375,203.5781 666.85,204.6484 Q666.1625,205.7188 666.1625,207.8125 Q666.1625,209.9063 666.85,210.9766 Q667.5375,212.0469 668.8813,212.0469 Q669.5063,212.0469 670.1,211.7734 Q670.6938,211.5 671.3188,210.9219 L671.3188,213.6406 Z "/><text fill="#000000" font-family="sans-serif" font-size="12" lengthAdjust="spacingAndGlyphs" textLength="66" x="685.65" y="212.1543">baseClient</text><line style="stroke: #A80036; stroke-width: 1.5;" x1="639.5" x2="768.5" y1="224" y2="224"/><text fill="#000000" font-family="sans-serif" font-size="11" lengthAdjust="spacingAndGlyphs" textLength="92" x="644.5" y="238.2104">opt      *Options</text><text fill="#000000" font-family="sans-serif" font-size="11" lengthAdjust="spacingAndGlyphs" textLength="119" x="644.5" y="251.0151">connPool pool.Pooler</text><line style="stroke: #A80036; stroke-width: 1.5;" x1="639.5" x2="768.5" y1="257.6094" y2="257.6094"/><text fill="#000000" font-family="sans-serif" font-size="11" lengthAdjust="spacingAndGlyphs" textLength="115" x="644.5" y="271.8198">onClose func() error</text><rect codeLine="42" fill="#FEFECE" filter="url(#ftjkw65pfksrv)" height="137.6328" id="Cmdable" style="stroke: #A80036; stroke-width: 1.5;" width="438" x="24" y="446.5"/><ellipse cx="211.75" cy="462.5" fill="#B4A7E5" rx="11" ry="11" style="stroke: #A80036; stroke-width: 1.0;"/><path d="M207.6719,458.2656 L207.6719,456.1094 L215.0625,456.1094 L215.0625,458.2656 L212.5938,458.2656 L212.5938,466.3438 L215.0625,466.3438 L215.0625,468.5 L207.6719,468.5 L207.6719,466.3438 L210.1406,466.3438 L210.1406,458.2656 L207.6719,458.2656 Z "/><text fill="#000000" font-family="sans-serif" font-size="12" font-style="italic" lengthAdjust="spacingAndGlyphs" textLength="54" x="232.25" y="466.6543">Cmdable</text><line style="stroke: #A80036; stroke-width: 1.5;" x1="25" x2="461" y1="478.5" y2="478.5"/><line style="stroke: #A80036; stroke-width: 1.5;" x1="25" x2="461" y1="486.5" y2="486.5"/><ellipse cx="35" cy="497.5" fill="#84BE84" rx="3" ry="3" style="stroke: #038048; stroke-width: 1.0;"/><text fill="#000000" font-family="sans-serif" font-size="11" lengthAdjust="spacingAndGlyphs" textLength="105" x="44" y="500.7104">Pipeline() Pipeliner</text><ellipse cx="35" cy="510.3047" fill="#84BE84" rx="3" ry="3" style="stroke: #038048; stroke-width: 1.0;"/><text fill="#000000" font-family="sans-serif" font-size="11" lengthAdjust="spacingAndGlyphs" textLength="399" x="44" y="513.5151">Pipelined(ctx context.Context, fn func(Pipeliner) error) ([]Cmder, error)</text><ellipse cx="35" cy="523.1094" fill="#84BE84" rx="3" ry="3" style="stroke: #038048; stroke-width: 1.0;"/><text fill="#000000" font-family="sans-serif" font-size="11" lengthAdjust="spacingAndGlyphs" textLength="412" x="44" y="526.3198">TxPipelined(ctx context.Context, fn func(Pipeliner) error) ([]Cmder, error)</text><ellipse cx="35" cy="535.9141" fill="#84BE84" rx="3" ry="3" style="stroke: #038048; stroke-width: 1.0;"/><text fill="#000000" font-family="sans-serif" font-size="11" lengthAdjust="spacingAndGlyphs" textLength="118" x="44" y="539.1245">TxPipeline() Pipeliner</text><ellipse cx="35" cy="548.7188" fill="#84BE84" rx="3" ry="3" style="stroke: #038048; stroke-width: 1.0;"/><text fill="#000000" font-family="sans-serif" font-size="11" lengthAdjust="spacingAndGlyphs" textLength="296" x="44" y="551.9292">Command(ctx context.Context) *CommandsInfoCmd</text><ellipse cx="35" cy="561.5234" fill="#84BE84" rx="3" ry="3" style="stroke: #038048; stroke-width: 1.0;"/><text fill="#000000" font-family="sans-serif" font-size="11" lengthAdjust="spacingAndGlyphs" textLength="271" x="44" y="564.7339">ClientGetName(ctx context.Context) *StringCmd</text><ellipse cx="35" cy="574.3281" fill="#84BE84" rx="3" ry="3" style="stroke: #038048; stroke-width: 1.0;"/><text fill="#000000" font-family="sans-serif" font-size="11" lengthAdjust="spacingAndGlyphs" textLength="117" x="44" y="577.5386">各种Redis命令方法()...</text><rect codeLine="54" fill="#FEFECE" filter="url(#ftjkw65pfksrv)" height="201.6563" id="ConnPool" style="stroke: #A80036; stroke-width: 1.5;" width="187" x="945.5" y="414.5"/><ellipse cx="1005.25" cy="430.5" fill="#ADD1B2" rx="11" ry="11" style="stroke: #A80036; stroke-width: 1.0;"/><path d="M1008.2188,436.1406 Q1007.6406,436.4375 1007,436.5859 Q1006.3594,436.7344 1005.6563,436.7344 Q1003.1563,436.7344 1001.8359,435.0859 Q1000.5156,433.4375 1000.5156,430.3125 Q1000.5156,427.1875 1001.8359,425.5313 Q1003.1563,423.875 1005.6563,423.875 Q1006.3594,423.875 1007.0078,424.0313 Q1007.6563,424.1875 1008.2188,424.4844 L1008.2188,427.2031 Q1007.5938,426.625 1007,426.3516 Q1006.4063,426.0781 1005.7813,426.0781 Q1004.4375,426.0781 1003.75,427.1484 Q1003.0625,428.2188 1003.0625,430.3125 Q1003.0625,432.4063 1003.75,433.4766 Q1004.4375,434.5469 1005.7813,434.5469 Q1006.4063,434.5469 1007,434.2734 Q1007.5938,434 1008.2188,433.4219 L1008.2188,436.1406 Z "/><text fill="#000000" font-family="sans-serif" font-size="12" lengthAdjust="spacingAndGlyphs" textLength="59" x="1025.75" y="434.6543">ConnPool</text><line style="stroke: #A80036; stroke-width: 1.5;" x1="946.5" x2="1131.5" y1="446.5" y2="446.5"/><text fill="#000000" font-family="sans-serif" font-size="11" lengthAdjust="spacingAndGlyphs" textLength="72" x="951.5" y="460.7104">opt *Options</text><text fill="#000000" font-family="sans-serif" font-size="11" lengthAdjust="spacingAndGlyphs" textLength="175" x="951.5" y="473.5151">dialErrorsNum uint32 // atomic</text><text fill="#000000" font-family="sans-serif" font-size="11" lengthAdjust="spacingAndGlyphs" textLength="148" x="951.5" y="486.3198">lastDialError atomic.Value</text><text fill="#000000" font-family="sans-serif" font-size="11" lengthAdjust="spacingAndGlyphs" textLength="117" x="951.5" y="499.1245">queue chan struct{}</text><text fill="#000000" font-family="sans-serif" font-size="11" lengthAdjust="spacingAndGlyphs" textLength="137" x="951.5" y="511.9292">connsMu      sync.Mutex</text><text fill="#000000" font-family="sans-serif" font-size="11" lengthAdjust="spacingAndGlyphs" textLength="109" x="951.5" y="524.7339">conns        []*Conn</text><text fill="#000000" font-family="sans-serif" font-size="11" lengthAdjust="spacingAndGlyphs" textLength="115" x="951.5" y="537.5386">idleConns    []*Conn</text><text fill="#000000" font-family="sans-serif" font-size="11" lengthAdjust="spacingAndGlyphs" textLength="81" x="951.5" y="550.3433">poolSize     int</text><text fill="#000000" font-family="sans-serif" font-size="11" lengthAdjust="spacingAndGlyphs" textLength="94" x="951.5" y="563.1479">idleConnsLen int</text><text fill="#000000" font-family="sans-serif" font-size="11" lengthAdjust="spacingAndGlyphs" textLength="63" x="951.5" y="575.9526">stats Stats</text><text fill="#000000" font-family="sans-serif" font-size="11" lengthAdjust="spacingAndGlyphs" textLength="140" x="951.5" y="588.7573">_closed  uint32 // atomic</text><text fill="#000000" font-family="sans-serif" font-size="11" lengthAdjust="spacingAndGlyphs" textLength="134" x="951.5" y="601.562">closedCh chan struct{}</text><line style="stroke: #A80036; stroke-width: 1.5;" x1="946.5" x2="1131.5" y1="608.1563" y2="608.1563"/><rect codeLine="68" fill="#FEFECE" filter="url(#ftjkw65pfksrv)" height="163.2422" id="Pooler" style="stroke: #A80036; stroke-width: 1.5;" width="259" x="940.5" y="938"/><ellipse cx="1045.75" cy="954" fill="#B4A7E5" rx="11" ry="11" style="stroke: #A80036; stroke-width: 1.0;"/><path d="M1041.6719,949.7656 L1041.6719,947.6094 L1049.0625,947.6094 L1049.0625,949.7656 L1046.5938,949.7656 L1046.5938,957.8438 L1049.0625,957.8438 L1049.0625,960 L1041.6719,960 L1041.6719,957.8438 L1044.1406,957.8438 L1044.1406,949.7656 L1041.6719,949.7656 Z "/><text fill="#000000" font-family="sans-serif" font-size="12" font-style="italic" lengthAdjust="spacingAndGlyphs" textLength="40" x="1066.25" y="958.1543">Pooler</text><line style="stroke: #A80036; stroke-width: 1.5;" x1="941.5" x2="1198.5" y1="970" y2="970"/><line style="stroke: #A80036; stroke-width: 1.5;" x1="941.5" x2="1198.5" y1="978" y2="978"/><ellipse cx="951.5" cy="989" fill="#84BE84" rx="3" ry="3" style="stroke: #038048; stroke-width: 1.0;"/><text fill="#000000" font-family="sans-serif" font-size="11" lengthAdjust="spacingAndGlyphs" textLength="233" x="960.5" y="992.2104">NewConn(context.Context) (*Conn, error)</text><ellipse cx="951.5" cy="1001.8047" fill="#84BE84" rx="3" ry="3" style="stroke: #038048; stroke-width: 1.0;"/><text fill="#000000" font-family="sans-serif" font-size="11" lengthAdjust="spacingAndGlyphs" textLength="137" x="960.5" y="1005.0151">CloseConn(*Conn) error</text><ellipse cx="951.5" cy="1014.6094" fill="#84BE84" rx="3" ry="3" style="stroke: #038048; stroke-width: 1.0;"/><text fill="#000000" font-family="sans-serif" font-size="11" lengthAdjust="spacingAndGlyphs" textLength="200" x="960.5" y="1017.8198">Get(context.Context) (*Conn, error)</text><ellipse cx="951.5" cy="1027.4141" fill="#84BE84" rx="3" ry="3" style="stroke: #038048; stroke-width: 1.0;"/><text fill="#000000" font-family="sans-serif" font-size="11" lengthAdjust="spacingAndGlyphs" textLength="61" x="960.5" y="1030.6245">Put(*Conn)</text><ellipse cx="951.5" cy="1040.2188" fill="#84BE84" rx="3" ry="3" style="stroke: #038048; stroke-width: 1.0;"/><text fill="#000000" font-family="sans-serif" font-size="11" lengthAdjust="spacingAndGlyphs" textLength="125" x="960.5" y="1043.4292">Remove(*Conn, error)</text><ellipse cx="951.5" cy="1053.0234" fill="#84BE84" rx="3" ry="3" style="stroke: #038048; stroke-width: 1.0;"/><text fill="#000000" font-family="sans-serif" font-size="11" lengthAdjust="spacingAndGlyphs" textLength="46" x="960.5" y="1056.2339">Len() int</text><ellipse cx="951.5" cy="1065.8281" fill="#84BE84" rx="3" ry="3" style="stroke: #038048; stroke-width: 1.0;"/><text fill="#000000" font-family="sans-serif" font-size="11" lengthAdjust="spacingAndGlyphs" textLength="66" x="960.5" y="1069.0386">IdleLen() int</text><ellipse cx="951.5" cy="1078.6328" fill="#84BE84" rx="3" ry="3" style="stroke: #038048; stroke-width: 1.0;"/><text fill="#000000" font-family="sans-serif" font-size="11" lengthAdjust="spacingAndGlyphs" textLength="78" x="960.5" y="1081.8433">Stats() *Stats</text><ellipse cx="951.5" cy="1091.4375" fill="#84BE84" rx="3" ry="3" style="stroke: #038048; stroke-width: 1.0;"/><text fill="#000000" font-family="sans-serif" font-size="11" lengthAdjust="spacingAndGlyphs" textLength="73" x="960.5" y="1094.6479">Close() error</text><rect codeLine="79" fill="#FEFECE" filter="url(#ftjkw65pfksrv)" height="124.8281" id="Stats" style="stroke: #A80036; stroke-width: 1.5;" width="275" x="977.5" y="753"/><ellipse cx="1094.25" cy="769" fill="#ADD1B2" rx="11" ry="11" style="stroke: #A80036; stroke-width: 1.0;"/><path d="M1097.2188,774.6406 Q1096.6406,774.9375 1096,775.0859 Q1095.3594,775.2344 1094.6563,775.2344 Q1092.1563,775.2344 1090.8359,773.5859 Q1089.5156,771.9375 1089.5156,768.8125 Q1089.5156,765.6875 1090.8359,764.0313 Q1092.1563,762.375 1094.6563,762.375 Q1095.3594,762.375 1096.0078,762.5313 Q1096.6563,762.6875 1097.2188,762.9844 L1097.2188,765.7031 Q1096.5938,765.125 1096,764.8516 Q1095.4063,764.5781 1094.7813,764.5781 Q1093.4375,764.5781 1092.75,765.6484 Q1092.0625,766.7188 1092.0625,768.8125 Q1092.0625,770.9063 1092.75,771.9766 Q1093.4375,773.0469 1094.7813,773.0469 Q1095.4063,773.0469 1096,772.7734 Q1096.5938,772.5 1097.2188,771.9219 L1097.2188,774.6406 Z "/><text fill="#000000" font-family="sans-serif" font-size="12" lengthAdjust="spacingAndGlyphs" textLength="33" x="1114.75" y="773.1543">Stats</text><line style="stroke: #A80036; stroke-width: 1.5;" x1="978.5" x2="1251.5" y1="785" y2="785"/><text fill="#000000" font-family="sans-serif" font-size="11" lengthAdjust="spacingAndGlyphs" textLength="225" x="983.5" y="799.2104">Hits     uint32 // 直接获取到空闲连接的次数</text><text fill="#000000" font-family="sans-serif" font-size="11" lengthAdjust="spacingAndGlyphs" textLength="224" x="983.5" y="812.0151">Misses   uint32 // 获取不到空闲连接的次数</text><text fill="#000000" font-family="sans-serif" font-size="11" lengthAdjust="spacingAndGlyphs" textLength="207" x="983.5" y="824.8198">Timeouts uint32 // 获取连接超时的次数</text><text fill="#000000" font-family="sans-serif" font-size="11" lengthAdjust="spacingAndGlyphs" textLength="185" x="983.5" y="837.6245">TotalConns uint32 // 当前总连接数</text><text fill="#000000" font-family="sans-serif" font-size="11" lengthAdjust="spacingAndGlyphs" textLength="170" x="983.5" y="850.4292">IdleConns  uint32 // 空闲连接数</text><text fill="#000000" font-family="sans-serif" font-size="11" lengthAdjust="spacingAndGlyphs" textLength="263" x="983.5" y="863.2339">StaleConns uint32 // 由于空闲过久被移除的连接数</text><line style="stroke: #A80036; stroke-width: 1.5;" x1="978.5" x2="1251.5" y1="869.8281" y2="869.8281"/><path codeLine="90" d="M625.6619,132.0124 C639.2009,149.8115 654.4328,169.8362 667.841,187.4634 " fill="none" id="Client-to-baseClient" style="stroke: #A80036; stroke-width: 1.0;"/><polygon fill="#A80036" points="671.2085,191.8904,668.9433,182.3056,668.1814,187.9109,662.5761,187.1489,671.2085,191.8904" style="stroke: #A80036; stroke-width: 1.0;"/><path codeLine="91" d="M704,278.2134 C704,293.868 704,312.6863 704,332.7897 " fill="none" id="baseClient-to-Options" style="stroke: #A80036; stroke-width: 1.0;"/><polygon fill="#A80036" points="704,337.9273,708,328.9273,704,332.9273,700,328.9273,704,337.9273" style="stroke: #A80036; stroke-width: 1.0;"/><path codeLine="92" d="M769.7,254.1486 C817.4027,270.5421 881.3249,297.9157 927,338 C949.912,358.1074 969.81,384.0292 986.2171,409.8176 " fill="none" id="baseClient-to-ConnPool" style="stroke: #A80036; stroke-width: 1.0;"/><polygon fill="#A80036" points="989.0295,414.2907,987.6255,404.5424,986.3682,410.0578,980.8528,408.8005,989.0295,414.2907" style="stroke: #A80036; stroke-width: 1.0;"/><path codeLine="93" d="M548.4241,132.1706 C490.4628,204.9162 381.6987,341.4231 310.831,430.3672 " fill="none" id="Client-to-Cmdable" style="stroke: #A80036; stroke-width: 1.0; stroke-dasharray: 7.0,7.0;"/><polygon fill="none" points="316.2155,434.8425,298.2777,446.1225,305.2661,426.1183,316.2155,434.8425" style="stroke: #A80036; stroke-width: 1.0;"/><path codeLine="94" d="M987.8202,616.8335 C957.5898,690.4903 930.4839,791.9401 960,878 C965.0749,892.7969 972.3988,907.2391 980.8926,920.8954 " fill="none" id="ConnPool-to-Pooler" style="stroke: #A80036; stroke-width: 1.0; stroke-dasharray: 7.0,7.0;"/><polygon fill="none" points="986.8645,917.2324,992.1959,937.7404,975.2392,925.0332,986.8645,917.2324" style="stroke: #A80036; stroke-width: 1.0;"/><path codeLine="95" d="M1064.6242,616.6481 C1075.5531,659.7887 1088.0152,708.9812 1097.8101,747.6452 " fill="none" id="ConnPool-to-Stats" style="stroke: #A80036; stroke-width: 1.0;"/><polygon fill="#A80036" points="1099.1129,752.7879,1100.7803,743.0812,1097.885,747.941,1093.0252,745.0458,1099.1129,752.7879" style="stroke: #A80036; stroke-width: 1.0;"/></g></svg>